#define 30381_e508173b47884db02f9039be13c775c5028c46fff90fbb4d03ba83edaaa25ed1_width 32
#define 30381_e508173b47884db02f9039be13c775c5028c46fff90fbb4d03ba83edaaa25ed1_height 32
static char 30381_e508173b47884db02f9039be13c775c5028c46fff90fbb4d03ba83edaaa25ed1_bits[] = {
  0xFF, 0x03, 0x00, 0x00, 0xFF, 0x03, 0x00, 0x00, 0x30, 0x00, 0x1F, 0x00, 
  0x30, 0xC0, 0x60, 0x00, 0x30, 0x20, 0x80, 0x00, 0x30, 0x20, 0x83, 0x00, 
  0x30, 0x10, 0x43, 0x00, 0x30, 0x10, 0x30, 0x00, 0x30, 0x10, 0x0C, 0x00, 
  0x30, 0x10, 0x30, 0x00, 0x30, 0x10, 0x40, 0x00, 0x30, 0x20, 0x80, 0x00, 
  0x30, 0x20, 0x80, 0x00, 0x30, 0xC0, 0x60, 0x00, 0x30, 0x00, 0x1F, 0x00, 
  0x30, 0x00, 0x00, 0x00, 0x30, 0x00, 0x00, 0x00, 0x30, 0x00, 0x00, 0x00, 
  0x30, 0x00, 0x00, 0x00, 0xFF, 0x03, 0x00, 0x00, 0xFF, 0x03, 0x00, 0x00, 
  0x00, 0x00, 0x00, 0x00, 0x00, 0x00, 0x00, 0x00, 0x00, 0x00, 0x00, 0x00, 
  0x00, 0x00, 0x00, 0x00, 0x00, 0x00, 0x00, 0x00, 0x00, 0x00, 0x00, 0x00, 
  0x00, 0x00, 0x00, 0x00, 0x00, 0x00, 0x00, 0x00, 0x00, 0x00, 0x00, 0x00, 
  0x00, 0x00, 0x00, 0x00, 0x00, 0x00, 0x00, 0x00, };
